<svg width="55" height="37" viewBox="0 0 55 37" fill="none" xmlns="http://www.w3.org/2000/svg">
<path d="M52.5 20.9099C53.8807 20.9099 55 19.7906 55 18.4099C55 17.0292 53.8807 15.9099 52.5 15.9099L52.5 18.4099L52.5 20.9099ZM0.732233 16.6421C-0.244078 17.6185 -0.244078 19.2014 0.732233 20.1777L16.6421 36.0876C17.6184 37.0639 19.2014 37.0639 20.1777 36.0876C21.154 35.1113 21.154 33.5284 20.1777 32.552L6.03553 18.4099L20.1777 4.26777C21.154 3.29146 21.154 1.70855 20.1777 0.73224C19.2014 -0.244071 17.6184 -0.244071 16.6421 0.732239L0.732233 16.6421ZM52.5 18.4099L52.5 15.9099L2.5 15.9099L2.5 18.4099L2.5 20.9099L52.5 20.9099L52.5 18.4099Z" fill="black"/>
</svg>
