<svg width="55" height="37" viewBox="0 0 55 37" fill="none" xmlns="http://www.w3.org/2000/svg">
<path d="M2.5 15.9099C1.11929 15.9099 1.20706e-07 17.0292 0 18.4099C-1.20706e-07 19.7906 1.11929 20.9099 2.5 20.9099L2.5 18.4099L2.5 15.9099ZM54.2678 20.1777C55.2441 19.2014 55.2441 17.6185 54.2678 16.6421L38.3579 0.732246C37.3816 -0.244065 35.7986 -0.244065 34.8223 0.732245C33.846 1.70856 33.846 3.29147 34.8223 4.26778L48.9645 18.4099L34.8223 32.5521C33.846 33.5284 33.846 35.1113 34.8223 36.0876C35.7986 37.0639 37.3816 37.0639 38.3579 36.0876L54.2678 20.1777ZM2.5 18.4099L2.5 20.9099L52.5 20.9099L52.5 18.4099L52.5 15.9099L2.5 15.9099L2.5 18.4099Z" fill="black"/>
</svg>
